<svg width="1280" height="271" viewBox="0 0 1280 271" fill="none" xmlns="http://www.w3.org/2000/svg">
<g filter="url(#filter0_b_321_137)">
<path d="M0 25.9386C30.4769 13.8195 60.9516 -2.83564 91.4286 0.41178C121.906 3.6592 152.38 26.8075 182.857 25.9386C213.334 25.0679 243.809 0.180073 274.286 0.41178C304.763 0.645244 335.237 26 365.714 25.9386C396.191 25.8754 426.666 0.395982 457.143 0.41178C487.62 0.429334 518.094 25.9421 548.571 25.9386C579.048 25.9333 609.523 0.41178 640 0.41178C670.477 0.41178 700.952 25.9333 731.429 25.9386C761.906 25.9421 792.38 0.429334 822.857 0.41178C853.334 0.395982 883.809 25.8754 914.286 25.9386C944.763 26 975.237 0.645244 1005.71 0.41178C1036.19 0.180073 1066.67 25.0679 1097.14 25.9386C1127.62 26.8075 1158.09 3.6592 1188.57 0.41178C1219.05 -2.83564 1249.52 13.8195 1280 25.9386V152C1249.52 152 1219.05 152 1188.57 152C1158.09 152 1127.62 152 1097.14 152C1066.67 152 1036.19 152 1005.71 152C975.237 152 944.763 152 914.286 152C883.809 152 847.759 152 817.282 152C786.805 152 761.906 152 731.429 152C700.952 152 670.477 152 640 152C609.523 152 585.738 152 555.261 152C524.784 152 487.62 152 457.143 152C426.666 152 396.191 152 365.714 152C335.237 152 304.763 152 274.286 152C243.809 152 223.369 152 192.892 152C162.415 152 118.561 152 88.0836 152C57.6067 152 30.4769 152 0 152V25.9386Z" fill="white" fill-opacity="0.42"/>
<path d="M1280 244.778C1249.52 256.897 1219.05 273.552 1188.57 270.305C1158.09 267.057 1127.62 243.909 1097.14 244.778C1066.67 245.648 1036.19 270.536 1005.71 270.305C975.237 270.071 944.763 244.716 914.286 244.778C883.809 244.841 853.334 270.32 822.857 270.305C792.38 270.287 761.906 244.774 731.429 244.778C700.952 244.783 670.477 270.305 640 270.305C609.523 270.305 579.048 244.783 548.571 244.778C518.094 244.774 487.62 270.287 457.143 270.305C426.666 270.32 396.191 244.841 365.714 244.778C335.237 244.716 304.763 270.071 274.286 270.305C243.809 270.536 213.334 245.648 182.857 244.778C152.38 243.909 121.906 267.057 91.4286 270.305C60.9517 273.552 30.4769 256.897 0 244.778V152C30.4769 152 60.9517 152 91.4286 152C121.906 152 152.38 152 182.857 152C213.334 152 243.809 152 274.286 152C304.763 152 335.237 152 365.714 152C396.191 152 432.241 152 462.718 152C493.195 152 518.094 152 548.571 152C579.048 152 609.523 152 640 152C670.477 152 694.262 152 724.739 152C755.216 152 792.38 152 822.857 152C853.334 152 883.809 152 914.286 152C944.763 152 975.237 152 1005.71 152C1036.19 152 1056.63 152 1087.11 152C1117.58 152 1161.44 152 1191.92 152C1222.39 152 1249.52 152 1280 152V244.778Z" fill="white" fill-opacity="0.42"/>
</g>
<defs>
<filter id="filter0_b_321_137" x="-150" y="-150" width="1580" height="570.716" filterUnits="userSpaceOnUse" color-interpolation-filters="sRGB">
<feFlood flood-opacity="0" result="BackgroundImageFix"/>
<feGaussianBlur in="BackgroundImageFix" stdDeviation="75"/>
<feComposite in2="SourceAlpha" operator="in" result="effect1_backgroundBlur_321_137"/>
<feBlend mode="normal" in="SourceGraphic" in2="effect1_backgroundBlur_321_137" result="shape"/>
</filter>
</defs>
</svg>
